2.2Hz3min_grf.mot
version=1
nRows=30
nColumns 19
inDegrees=yes
endheader
time	1_ground_force_vx	1_ground_force_vy	1_ground_force_vz	1_ground_force_px	1_ground_force_py	1_ground_force_pz	1_ground_torque_x	1_ground_torque_y	1_ground_torque_z	2_ground_force_vx	2_ground_force_vy	2_ground_force_vz	2_ground_force_px	2_ground_force_py	2_ground_force_pz	2_ground_torque_x	2_ground_torque_y	2_ground_torque_z
            1.253500	           -9.244186	           46.363263	           -8.353535	           -0.236738	            0.006175	           -0.394288	            0.128563	           -0.644794	            0.116176	           -7.762755	           64.678829	           32.239459	           -0.195013	            0.005983	           -0.754774	            0.508136	           -4.233763	           -2.110339
            1.254000	           -9.243872	           44.020006	           -8.409440	           -0.236722	            0.006182	           -0.395974	            0.138677	           -0.660389	            0.126159	           -7.934266	           60.259095	           32.082985	           -0.190603	            0.005990	           -0.752237	            0.537565	           -4.082698	           -2.173699
            1.254500	           -9.196154	           41.854271	           -7.822702	           -0.233714	            0.006155	           -0.389449	            0.128091	           -0.582978	            0.108960	           -7.974613	           58.418614	           31.747938	           -0.189462	            0.006006	           -0.755668	            0.562509	           -4.120704	           -2.239421
            1.255000	           -9.194489	           38.968054	           -7.376510	           -0.232886	            0.006155	           -0.389409	            0.141162	           -0.598271	            0.113251	           -8.102741	           54.920962	           31.266232	           -0.186295	            0.006017	           -0.755295	            0.591511	           -4.009305	           -2.282478
            1.255500	           -9.285013	           35.722271	           -7.160917	           -0.231955	            0.006149	           -0.387963	            0.149753	           -0.576147	            0.115495	           -7.956312	           53.264972	           31.025618	           -0.185295	            0.006029	           -0.757650	            0.598821	           -4.008912	           -2.335099
            1.256000	           -9.375849	           33.558279	           -6.986541	           -0.233527	            0.006146	           -0.387357	            0.149248	           -0.534193	            0.111214	           -7.943870	           49.767660	           30.590781	           -0.180311	            0.006041	           -0.756060	            0.618370	           -3.874032	           -2.381259
            1.256500	           -9.466849	           32.295615	           -6.808300	           -0.231055	            0.006135	           -0.384712	            0.168700	           -0.575512	            0.121325	           -7.976221	           45.717232	           30.294777	           -0.175740	            0.006051	           -0.754314	            0.646395	           -3.704934	           -2.455095
            1.257000	           -9.236329	           30.130899	           -6.451298	           -0.230242	            0.006111	           -0.379184	            0.187057	           -0.610221	            0.130654	           -8.251421	           44.059551	           30.101271	           -0.171442	            0.006076	           -0.756978	            0.678647	           -3.623724	           -2.475711
            1.257500	           -8.914006	           26.704536	           -6.145789	           -0.230891	            0.006124	           -0.382042	            0.221921	           -0.664829	            0.153004	           -8.240890	           41.114015	           29.856117	           -0.167107	            0.006090	           -0.756466	            0.698708	           -3.485872	           -2.531366
            1.258000	           -8.546073	           25.801510	           -5.737861	           -0.227104	            0.006089	           -0.373763	            0.194454	           -0.587076	            0.130557	           -8.279826	           38.904568	           29.707468	           -0.163257	            0.006108	           -0.757722	            0.722954	           -3.396959	           -2.593912
            1.258500	           -7.948664	           24.717868	           -5.239563	           -0.225282	            0.006068	           -0.368826	            0.179310	           -0.557600	            0.118197	           -8.506162	           36.694444	           29.558899	           -0.160296	            0.006127	           -0.759990	            0.771860	           -3.329699	           -2.682211
            1.259000	           -7.946807	           23.272990	           -4.603764	           -0.228044	            0.006060	           -0.367140	            0.204875	           -0.599995	            0.118688	           -8.262026	           33.933735	           29.361231	           -0.150527	            0.006178	           -0.764411	            0.755114	           -3.101400	           -2.683493
            1.259500	           -7.441603	           21.289182	           -4.384238	           -0.222954	            0.006060	           -0.366787	            0.199826	           -0.571669	            0.117728	           -8.388762	           30.067284	           29.018996	           -0.141257	            0.006190	           -0.758371	            0.781293	           -2.800337	           -2.702704
            1.260000	           -6.890607	           20.206515	           -4.115106	           -0.225504	            0.006095	           -0.375187	            0.214320	           -0.628488	            0.127993	           -8.616386	           28.225122	           28.965597	           -0.136640	            0.006218	           -0.761536	            0.815367	           -2.670937	           -2.741008
            1.260500	           -7.074644	           19.486793	           -4.438734	           -0.219513	            0.006023	           -0.358131	            0.196413	           -0.541011	            0.123232	           -8.468608	           26.200668	           28.770597	           -0.129205	            0.006252	           -0.763491	            0.823952	           -2.549190	           -2.799231
            1.261000	           -7.166459	           18.946371	           -4.532537	           -0.221077	            0.006017	           -0.356751	            0.188229	           -0.497631	            0.119048	           -8.365891	           23.625273	           28.104365	           -0.118787	            0.006294	           -0.764858	            0.816336	           -2.305333	           -2.742399
            1.261500	           -7.532679	           17.323516	           -4.446872	           -0.222696	            0.006010	           -0.355298	            0.224192	           -0.515593	            0.132350	           -8.361883	           22.520215	           28.147351	           -0.114275	            0.006314	           -0.765764	            0.813288	           -2.190347	           -2.737650
            1.262000	           -7.761906	           15.521405	           -4.591600	           -0.215772	            0.006019	           -0.356912	            0.311036	           -0.621975	            0.183995	           -8.632348	           19.572827	           28.136957	           -0.101599	            0.006377	           -0.770700	            0.815282	           -1.848556	           -2.657395
            1.262500	           -7.624069	           15.701107	           -4.453601	           -0.219014	            0.006003	           -0.353444	            0.247088	           -0.508857	            0.144337	           -8.624414	           17.363382	           28.035216	           -0.091634	            0.006424	           -0.773597	            0.793608	           -1.597756	           -2.579765
            1.263000	           -6.980233	           15.157092	           -3.677962	           -0.214047	            0.005998	           -0.351941	            0.233632	           -0.507315	            0.123103	           -8.666009	           15.890529	           27.889195	           -0.085590	            0.006457	           -0.776957	            0.819938	           -1.503488	           -2.638747
            1.263500	           -6.245963	           14.615257	           -3.406966	           -0.219107	            0.006016	           -0.356498	            0.263935	           -0.617595	            0.143968	           -8.516963	           13.498279	           27.552097	           -0.071717	            0.006530	           -0.783238	            0.747742	           -1.185074	           -2.418921
            1.264000	           -4.732788	           15.155560	           -3.224978	           -0.213527	            0.005991	           -0.350481	            0.198710	           -0.636319	            0.135404	           -8.651634	           11.841274	           27.311603	           -0.062006	            0.006582	           -0.788050	            0.718549	           -0.983459	           -2.268325
            1.264500	           -2.806143	           13.351702	           -2.870639	           -0.215067	            0.006019	           -0.356906	            0.156702	           -0.745591	            0.160303	           -8.551952	           10.184277	           27.305649	           -0.050608	            0.006690	           -0.806709	            0.694120	           -0.826608	           -2.216265
            1.265000	           -0.419040	           13.526727	           -1.545961	           -0.208339	            0.006002	           -0.352761	            0.025123	           -0.810969	            0.092685	           -8.407538	            9.080899	           27.020079	           -0.232311	            0.006130	           -0.833667	            0.585246	           -6.046482	           -0.361129
            1.265500	            1.187175	           12.262621	           -0.959227	           -0.208828	            0.006067	           -0.367979	           -0.082467	           -0.851818	            0.066632	           -8.589724	            7.607873	           26.780261	           -0.232311	            0.006130	           -0.833667	            0.660286	           -6.027036	           -0.436495
            1.266000	            2.197153	           11.899926	           -0.413005	           -0.197735	            0.006060	           -0.365734	           -0.132187	           -0.715933	            0.024848	           -8.397775	            6.320348	           26.540942	           -0.232311	            0.006130	           -0.833667	            0.866943	           -6.035608	           -0.474317
            1.266500	            1.279886	           12.260870	           -0.546751	           -0.200733	            0.006077	           -0.369865	           -0.066757	           -0.639511	            0.028518	           -8.300067	            5.215629	           26.583888	           -0.232311	            0.006130	           -0.833667	            0.960810	           -6.016431	           -0.455439
            1.267000	           -0.280906	           12.084038	           -1.414918	           -0.203505	            0.006028	           -0.358544	            0.015223	           -0.654844	            0.076676	           -8.245344	            3.006855	           26.341343	           -0.232311	            0.006130	           -0.833667	            1.073362	           -5.987195	           -0.587337
            1.267500	           -1.795399	           11.906430	           -2.099775	           -0.216582	            0.005959	           -0.343072	            0.115645	           -0.766916	            0.135251	           -8.244844	            2.824046	           25.965261	           -0.232311	            0.006130	           -0.833667	            1.242480	           -5.996172	           -0.549742
            1.268000	           -1.795546	           12.086892	           -2.144858	           -0.214062	            0.005989	           -0.349921	            0.131807	           -0.887270	            0.157449	           -8.240253	            1.535509	           25.819877	           -0.232311	            0.006130	           -0.833667	            1.317417	           -5.939185	           -0.549572
